<?xml version="1.0" encoding="UTF-8" standalone="no"?>
<svg
   xmlns:dc="http://purl.org/dc/elements/1.1/"
   xmlns:cc="http://creativecommons.org/ns#"
   xmlns:rdf="http://www.w3.org/1999/02/22-rdf-syntax-ns#"
   xmlns:svg="http://www.w3.org/2000/svg"
   xmlns="http://www.w3.org/2000/svg"
   id="svg840"
   version="1.1"
   viewBox="0 0 85.99791 69.241783"
   height="69.241783mm"
   width="85.99791mm">
  <defs
     id="defs834" />
  <metadata
     id="metadata837">
    <rdf:RDF>
      <cc:Work
         rdf:about="">
        <dc:format>image/svg+xml</dc:format>
        <dc:type
           rdf:resource="http://purl.org/dc/dcmitype/StillImage" />
        <dc:title></dc:title>
      </cc:Work>
    </rdf:RDF>
  </metadata>
  <g
     transform="translate(-66.386639,-79.712068)"
     id="layer1">
    <path
       id="path2037"
       d="m 108.21704,148.92571 c -0.62958,-0.14066 -2.63258,-3.09607 -4.22218,-6.22966 -0.39965,-0.78784 -0.31012,-0.81322 1.89047,-0.53624 0.90527,0.114 3.03958,0.20411 4.74291,0.20035 2.07748,-0.004 3.09697,0.0553 3.09697,0.18155 0,0.28606 -1.90191,3.12211 -2.81485,4.1974 -1.71905,2.02472 -2.08571,2.3224 -2.69332,2.1866 z m 19.02046,-3.94768 c -0.0792,-0.24963 0.003,-0.49544 0.25315,-0.76234 0.20348,-0.21665 0.37006,-0.5355 0.37006,-0.70855 0,-0.30915 -0.79124,-1.86528 -1.3971,-2.74766 -0.16946,-0.24684 -0.41117,-0.70722 -0.53712,-1.02306 -0.12589,-0.31584 -0.29482,-0.57424 -0.37527,-0.57424 -0.34615,0 -1.30714,-1.24855 -1.90399,-2.47373 -0.63543,-1.30433 -0.64559,-1.35916 -0.64559,-3.48358 v -2.15838 l -0.56676,-0.49202 c -0.55201,-0.47922 -0.76498,-0.9413 -2.26281,-4.90936 -0.76511,-2.02698 -1.62348,-4.72416 -1.73205,-5.44259 -0.0727,-0.48046 -0.0323,-0.69839 0.14148,-0.7651 0.32134,-0.12331 1.26943,0.33759 2.09592,1.01886 0.72783,0.59995 2.66641,3.10633 3.05667,3.95196 0.26553,0.57541 0.33449,0.69409 1.36129,2.34297 0.81922,1.31552 1.01666,2.40764 0.56104,3.10303 -0.16549,0.25272 -0.45297,0.50768 -0.63863,0.5666 -0.64742,0.20556 -0.22069,0.94843 0.70776,1.23218 0.65229,0.1993 1.37044,1.09797 1.60475,2.008 0.11607,0.45031 0.27687,1.01755 0.35761,1.26051 0.49938,1.50251 0.58606,2.28269 0.35878,3.22998 -0.17906,0.7468 -0.1828,1.03977 -0.0167,1.34947 0.44715,0.83548 0.90169,2.4478 1.00628,3.56945 0.14108,1.51319 -0.23192,2.27602 -1.113,2.27602 -0.42097,0 -0.59876,-0.0955 -0.68535,-0.36842 z m -39.304941,-1.30459 c -0.533503,-0.64281 -0.141285,-2.80101 0.925764,-5.09307 0.468434,-1.00626 0.524072,-1.25573 0.344241,-1.54366 -0.284701,-0.4559 -0.270822,-1.56131 0.02672,-2.13163 0.131477,-0.25199 0.293841,-0.74999 0.360748,-1.10669 0.067,-0.35669 0.354278,-1.16695 0.638581,-1.80061 0.465178,-1.03679 0.605086,-1.19294 1.39787,-1.56024 1.489092,-0.68992 1.741047,-1.03403 1.003252,-1.37019 -0.970007,-0.44196 -0.993714,-2.05577 -0.04758,-3.2414 0.500781,-0.62752 0.915142,-1.21392 1.883396,-2.66532 0.929541,-1.39334 2.727164,-3.34229 3.669226,-3.97807 0.421207,-0.28429 1.000394,-0.51687 1.287076,-0.51687 0.431536,0 0.521212,0.0726 0.521212,0.42165 0,0.59095 -0.818516,2.96279 -1.332988,3.86259 -0.236324,0.41334 -0.430639,0.87537 -0.431828,1.02671 -0.0012,0.15131 -0.438048,1.14525 -0.970843,2.20869 -0.532773,1.06341 -0.97009,2.02677 -0.971802,2.1408 -0.0041,0.31387 -0.884295,1.29458 -1.161107,1.29458 -0.453344,0 -0.620091,0.69917 -0.600244,2.51664 0.01461,1.34218 -0.05781,1.99571 -0.279357,2.51914 -0.164451,0.38872 -0.349832,0.74651 -0.411793,0.79512 -0.06198,0.0486 -0.426654,0.55446 -0.81042,1.12412 -0.383766,0.56969 -0.879205,1.11848 -1.100941,1.21951 -0.221758,0.10095 -0.449254,0.32887 -0.505581,0.5063 -0.05634,0.1774 -0.356011,0.63819 -0.665982,1.02392 -0.882837,1.09852 -1.240203,1.62264 -1.661618,2.43682 l -0.391237,0.75586 0.523757,0.38723 c 0.625288,0.4623 0.667798,0.77102 0.126259,0.91616 -0.6611,0.17719 -1.137713,0.12538 -1.36473,-0.14817 z m 19.873421,-4.00021 c -1.16618,-0.0737 -2.5974,-0.20961 -3.18049,-0.30186 -0.58309,-0.0923 -1.11136,-0.13794 -1.17392,-0.10121 -0.0626,0.0365 -0.39084,-0.0492 -0.72953,-0.19096 -0.51447,-0.21495 -0.69076,-0.44457 -1.07158,-1.39588 -0.2507,-0.62623 -0.56984,-1.63211 -0.70918,-2.23528 l -0.25336,-1.09669 0.64357,0.11414 c 4.89752,0.86885 8.10756,1.04996 12.65877,0.71412 2.88063,-0.21255 3.00853,-0.20848 2.9712,0.0951 -0.1025,0.83329 -1.12891,3.81317 -1.37566,3.99357 -0.16404,0.11995 -1.19771,0.26161 -2.35736,0.32311 -1.13589,0.0604 -2.34359,0.13335 -2.68372,0.16257 -0.34012,0.0292 -1.57256,-0.006 -2.73874,-0.0809 z m -0.64578,-6.95828 c -0.0407,-0.0407 -0.34921,-0.10858 -0.68583,-0.15088 -3.48433,-0.43916 -5.58305,-0.86264 -6.0307,-1.21694 -0.33134,-0.26224 -0.612412,-3.58548 -0.33911,-4.00952 0.1392,-0.216 0.31855,-0.2113 1.28124,0.0336 3.91425,0.99558 8.83442,1.2387 14.97058,0.7398 l 1.65932,-0.13502 -0.13794,1.66163 c -0.076,0.91391 -0.15193,1.80205 -0.16904,1.97364 -0.0495,0.49702 -0.27526,0.60339 -1.77478,0.83603 -1.32725,0.20597 -8.61317,0.42815 -8.77368,0.26764 z m 29.9886,-5.833 c 0.0652,-0.34715 0.0438,-0.61842 -0.0486,-0.61842 -0.0906,0 -0.82929,-0.43732 -1.64171,-0.97182 -0.86134,-0.56667 -1.67387,-0.9718 -1.94906,-0.9718 -0.53591,0 -1.38568,-0.25 -2.29159,-0.6742 -1.03954,-0.48674 -3.53971,-2.18708 -3.72503,-2.53332 -0.12628,-0.23587 -0.37548,-0.32637 -0.8988,-0.32637 -0.6856,0 -2.81361,-0.91077 -3.50409,-1.4997 -0.14588,-0.12435 -0.58309,-0.38663 -0.9718,-0.58284 -0.38874,-0.19617 -0.89363,-0.557 -1.12201,-0.80173 -0.34488,-0.36956 -0.56938,-0.44238 -1.3252,-0.42975 -1.63891,0.0273 -3.4635,-1.53441 -2.19101,-1.87542 0.77949,-0.20891 2.00087,-0.10729 2.60884,0.21725 0.3387,0.18073 1.06833,0.38466 1.62141,0.45316 0.86863,0.10741 4.74921,1.30676 5.39119,1.66604 0.12202,0.0685 0.42293,0.39646 0.66834,0.72909 0.32496,0.44047 0.67395,0.66377 1.28458,0.82193 0.93462,0.24212 1.84103,0.62999 2.53946,1.08674 0.25531,0.16695 0.91195,0.58096 1.4592,0.92 0.54724,0.33902 1.03472,0.74163 1.08329,0.89469 0.11814,0.37234 1.2349,1.58102 1.46072,1.58102 0.3115,0 1.9995,1.76826 2.24469,2.35143 0.2786,0.6626 0.0791,1.18245 -0.45372,1.18245 -0.31022,0 -0.3405,-0.0782 -0.23916,-0.61843 z m -27.04581,-1.10036 c -1.87032,-0.0697 -6.69028,-0.59336 -6.89106,-0.74877 -0.19534,-0.15109 -1.3063,-0.38619 -2.10309,-0.44486 -0.86009,-0.0632 -0.97364,-0.41199 -0.69693,-2.14 0.32577,-2.0344 0.42352,-2.1956 1.2542,-2.06794 0.3643,0.056 0.80445,0.17468 0.97811,0.26361 0.34303,0.17571 2.83288,0.57532 4.80836,0.77155 1.74572,0.17342 5.8395,0.11025 8.09495,-0.12487 1.44626,-0.15067 1.96064,-0.14921 2.11629,0.006 0.12875,0.12874 0.20702,0.87718 0.20966,2.00393 l 0.004,1.79834 -0.61843,0.15359 c -1.51628,0.37634 -4.77895,0.61755 -7.15611,0.52906 z m -30.223352,-0.63838 c -0.199093,-0.79284 0.616085,-1.86776 2.18114,-2.87647 0.514554,-0.33164 1.184418,-0.88645 1.488588,-1.23289 1.094644,-1.24671 4.23836,-2.8911 5.971622,-3.12357 0.602665,-0.0808 0.89014,-0.24389 1.312097,-0.74414 0.439426,-0.52096 0.787902,-0.70918 1.865574,-1.00755 2.149334,-0.59512 4.273228,-1.02062 5.110193,-1.02381 0.467494,-0.001 0.907816,-0.1175 1.096475,-0.28827 0.519584,-0.4702 2.981393,0.0733 2.981393,0.65811 0,0.0841 -0.33781,0.3661 -0.75071,0.62676 -0.61986,0.39129 -0.94365,0.47098 -1.857393,0.45712 -0.929165,-0.0146 -1.188655,0.0522 -1.617895,0.41339 -0.281173,0.23658 -1.468952,0.90651 -2.639534,1.48873 -1.792844,0.89168 -2.275907,1.05867 -3.064727,1.05937 -0.779074,7e-4 -1.025457,0.0835 -1.466488,0.49292 -0.51781,0.48074 -2.915447,1.88459 -2.915447,1.70703 0,-0.0493 -0.23739,0.0332 -0.527515,0.18324 -0.290147,0.15005 -1.18467,0.39534 -1.987805,0.5451 -1.50579,0.2808 -3.730629,1.22639 -4.258853,1.81006 -0.164451,0.18178 -0.277938,0.51837 -0.252143,0.748 0.06699,0.59692 -0.521943,0.69105 -0.668572,0.1069 z m 28.986502,-6.32747 c -2.51442,-0.16341 -6.11511,-0.66181 -6.35215,-0.87942 -0.0922,-0.0848 -0.31097,-0.15401 -0.4859,-0.15401 -0.17488,0 -0.31805,-0.10366 -0.31805,-0.23044 0,-0.40124 1.04078,-1.88989 1.3213,-1.88989 0.14797,0 0.26895,-0.0666 0.26895,-0.14775 0,-0.18011 1.76126,-1.08906 2.1103,-1.08906 0.13753,0 0.5339,-0.0907 0.88094,-0.20161 0.34704,-0.11077 0.73932,-0.23111 0.87173,-0.26712 0.40307,-0.10961 -0.0399,-0.4714 -1.04883,-0.85644 -0.50927,-0.1943 -1.22275,-0.63168 -1.58555,-0.97181 -0.36279,-0.34014 -0.80751,-0.74934 -0.98828,-0.90938 -0.18073,-0.16006 -0.56721,-0.62453 -0.85876,-1.03221 -0.29154,-0.4077 -0.65782,-0.81017 -0.81394,-0.8944 -0.28491,-0.1536 -1.42661,0.19992 -2.543225,0.78781 -0.291544,0.15339 -0.653335,0.27955 -0.80397,0.28016 -0.150677,5.1e-4 -0.349395,0.0733 -0.441721,0.16131 -0.309179,0.2952 -2.974549,0.97575 -4.496863,1.14817 -2.050142,0.23221 -2.578742,0.25859 -2.773161,0.13837 -0.174884,-0.10806 1.164448,-1.36903 2.467884,-2.32341 0.324393,-0.23753 1.483059,-0.50908 3.760385,-0.88129 0.49116,-0.0804 1.326038,-0.27133 1.855285,-0.42456 0.529225,-0.15318 1.180896,-0.32277 1.448146,-0.37669 0.26725,-0.054 0.4859,-0.17614 0.4859,-0.2714 0,-0.0954 -0.21865,-0.17448 -0.4859,-0.17594 l -0.485903,-0.003 0.427783,-0.21825 c 0.23528,-0.11996 0.46056,-0.31766 0.50063,-0.43913 0.0883,-0.26782 -0.42385,-0.28349 -1.738247,-0.0533 -3.989072,0.69908 -4.817773,0.76102 -8.28991,0.61965 -1.89504,-0.0772 -3.664177,-0.15672 -3.931429,-0.17676 -0.267253,-0.0208 -0.764194,-0.0463 -1.104343,-0.0584 -0.340129,-0.0129 -0.618422,-0.0852 -0.618422,-0.16195 0,-0.077 0.854767,-0.54208 1.899465,-1.03365 l 1.899445,-0.8938 1.590244,0.15485 c 0.874634,0.0851 2.186585,0.23718 2.915447,0.33796 0.728862,0.1008 1.961301,0.21529 2.738768,0.25446 1.9296,0.0973 3.632309,0.24232 4.097302,0.34915 0.42346,0.0972 0.7217,-0.19993 0.46161,-0.45998 -0.16946,-0.16946 -6.104121,-0.85823 -7.438214,-0.8632 -0.567834,-0.002 -0.868228,-0.11207 -1.192683,-0.43653 -0.515995,-0.51597 -0.59486,-1.08222 -0.124591,-0.89377 0.295071,0.11812 1.904328,0.42309 4.19649,0.795 0.583091,0.0945 1.616749,0.29563 2.297007,0.44671 2.311491,0.51332 2.368361,0.51681 2.489211,0.15255 1.0725,-3.23237 3.77746,-5.522194 7.16359,-6.064129 1.09959,-0.175929 3.26816,0.12918 4.66783,0.657009 2.34895,0.88572 4.57266,2.95712 5.46355,5.08932 0.139,0.33243 0.34585,0.6044 0.45988,0.6044 0.1538,0 0.15109,0.068 -0.0103,0.26295 -0.1776,0.21412 -0.16049,0.2851 0.0924,0.38221 0.36331,0.1394 3.86723,-0.23844 4.29595,-0.46326 0.38666,-0.20285 4.77414,-0.61792 4.92596,-0.4661 0.0649,0.0651 -0.0907,0.32715 -0.34607,0.58251 -0.59216,0.59215 -1.39542,0.70089 -5.513,0.74633 -1.7429,0.0187 -3.23254,0.0743 -3.31031,0.12228 -0.0778,0.048 -0.1415,0.26235 -0.1415,0.47619 -1.7e-4,0.76791 -0.0561,1.099 -0.22129,1.3087 -0.23519,0.29869 -0.0129,0.58201 0.45611,0.58201 0.2178,0 0.47151,0.0649 0.56384,0.14442 0.0923,0.0795 0.60515,0.24702 1.13966,0.37239 0.53451,0.12538 1.52841,0.41035 2.20867,0.6333 0.68028,0.22293 1.56741,0.49366 1.97142,0.6016 0.45793,0.12228 0.93833,0.42832 1.27564,0.8125 0.29758,0.33894 0.60312,0.61717 0.67898,0.61829 0.0757,0.001 0.53549,0.40803 1.0214,0.90421 l 0.88346,0.90214 -0.97181,-0.10521 c -2.83099,-0.30677 -5.90944,-1.2381 -8.36804,-2.53161 -0.98104,-0.51616 -1.86069,-0.93844 -1.95479,-0.93844 -0.0941,0 -0.65384,0.49694 -1.2439,1.10432 -1.08898,1.12098 -2.96196,2.26205 -4.1242,2.5126 -0.32098,0.0693 -0.55556,0.20999 -0.52127,0.31283 0.052,0.15611 1.15121,0.59311 2.87181,1.14181 0.60045,0.19158 2.04808,1.51596 2.29016,2.09536 0.54834,1.31233 0.60106,1.23561 -1.00639,1.46477 -1.98263,0.28264 -4.22421,0.3411 -6.76126,0.17635 z m 18.72324,-7.10732 -1.91486,-1.83315 -2.43323,-0.66968 c -1.33825,-0.36832 -2.39677,-0.7286 -2.35224,-0.80065 0.0789,-0.12771 0.44638,-0.0513 2.31597,0.4817 1.40187,0.39965 2.83417,0.55822 5.21471,0.57729 2.37964,0.0187 2.62353,0.10535 3.66229,1.29641 0.2536,0.29077 0.81104,0.91743 1.23875,1.39263 0.42773,0.47518 0.74578,0.8873 0.70679,0.91584 -0.18428,0.13482 -2.7443,0.47276 -3.58142,0.47276 h -0.94188 z m 5.73913,-0.28718 c -0.90167,-0.87463 -1.58318,-1.64649 -1.51442,-1.71525 0.36029,-0.36028 8.0169,0.36282 8.45234,0.79826 0.2853,0.2853 -1.24431,1.41461 -2.31597,1.70986 -0.54451,0.15006 -1.37682,0.39081 -1.84959,0.53508 -0.47279,0.14421 -0.92109,0.2623 -0.99624,0.2623 -0.0751,0 -0.87442,-0.71561 -1.77612,-1.59025 z m -45.577284,0.31862 c -1.949301,-0.16675 -2.145681,-0.19972 -2.53619,-0.42735 -0.443159,-0.25823 -0.248594,-0.53045 1.547421,-2.16487 l 1.43051,-1.30179 1.501884,0.12938 c 2.456531,0.21175 3.88871,0.20286 5.477514,-0.0343 2.868221,-0.42806 2.372239,-0.16633 -0.873508,0.46108 -1.004295,0.19409 -1.219625,0.31217 -1.826129,1.00119 -0.378175,0.42961 -0.782581,0.78111 -0.898719,0.78111 -0.116034,0 -0.476028,0.28084 -0.799775,0.62409 -0.901514,0.95577 -1.300557,1.0787 -3.023008,0.93139 z m -5.124117,-1.00774 c -2.281332,-0.62464 -5.159123,-2.33869 -4.698909,-2.79873 0.183922,-0.18385 8.87345,-0.17112 9.057393,0.0129 0.08097,0.0812 -0.09141,0.34903 -0.382869,0.59527 -0.291546,0.24626 -1.01878,0.91535 -1.616081,1.48689 -0.597302,0.57153 -1.114131,1.03435 -1.148503,1.0285 -0.03444,-0.006 -0.579358,-0.15213 -1.211031,-0.32511 z m 56.895391,-1.16761 c -0.14588,-0.0313 -1.07709,-0.15172 -2.06962,-0.26759 -1.66415,-0.19451 -1.90903,-0.27466 -3.14711,-1.03108 -0.73838,-0.45111 -1.52627,-0.91904 -1.75084,-1.03985 -0.22455,-0.12085 -0.50772,-0.33948 -0.62925,-0.48593 -0.19513,-0.23524 0.0954,-0.26624 2.49581,-0.26624 3.00724,0 3.79738,0.15651 6.51457,1.29025 l 1.50189,0.62666 -0.70597,0.0576 c -0.62957,0.0513 -0.71571,0.11504 -0.7959,0.58762 -0.0751,0.44251 -0.17738,0.53465 -0.61924,0.55771 -0.2911,0.0146 -0.64857,0.003 -0.79434,-0.029 z m -10.42493,-0.7115 c -2.38094,-0.10056 -4.44826,-0.23359 -4.59404,-0.29563 -0.14586,-0.062 -1.21918,-0.32995 -2.38536,-0.59546 -1.26194,-0.28729 -2.2614,-0.61468 -2.46879,-0.8087 -0.26701,-0.24976 -0.28766,-0.3281 -0.0883,-0.33489 0.14316,-0.004 0.5926,-0.0378 0.99895,-0.0728 0.40636,-0.0353 2.79173,-0.0896 5.30081,-0.12059 l 4.562,-0.0568 1.8111,1.11252 c 0.99612,0.61187 1.81113,1.13799 1.81113,1.16914 0,0.16842 -1.02391,0.16904 -4.94744,0.004 z m 13.51707,-1.21753 c -1.63901,-0.54501 -2.67233,-0.85958 -3.00378,-0.91441 -0.99854,-0.16507 -2.07621,-0.68107 -2.25848,-1.08113 -0.15131,-0.33189 -0.1417,-0.46123 0.0417,-0.57472 0.29055,-0.17969 2.24792,-0.47799 4.20479,-0.64109 l 1.45804,-0.12146 1.50942,0.76175 c 0.83016,0.41895 1.54552,0.82019 1.58968,0.89163 0.0442,0.0713 -0.38761,0.53522 -0.95947,1.03063 -1.11249,0.96379 -1.41003,1.03854 -2.582,0.64885 z m -45.001688,-0.0455 c 0.127513,-0.0512 0.279941,-0.0448 0.338667,0.0146 0.05864,0.0587 -0.04571,0.10056 -0.231921,0.0929 -0.205772,-0.008 -0.247698,-0.0503 -0.106637,-0.10663 z m 0.5632,-0.1259 c 0,-0.0384 0.31137,-0.0995 0.691923,-0.13586 0.380553,-0.0363 0.65415,-0.004 0.608008,0.0697 -0.08389,0.13586 -1.299931,0.19764 -1.299931,0.0659 z m -20.745704,-1.01967 c -0.101984,-0.63783 -0.237016,-0.75946 -0.766759,-0.69065 -0.121476,0.0167 -0.220867,-0.0422 -0.220867,-0.12856 0,-0.25665 4.771014,-1.32535 5.919247,-1.32591 1.506958,-7.1e-4 3.12068,0.13419 3.203218,0.26767 0.04758,0.077 0.340191,0.14546 0.65031,0.15234 0.310097,0.006 0.719951,0.0735 0.910759,0.14797 0.307864,0.12041 0.288582,0.15026 -0.171338,0.26571 -0.285012,0.0716 -0.95953,0.40246 -1.49894,0.73539 -0.539389,0.33296 -1.082494,0.60534 -1.206874,0.60534 -0.124385,0 -0.440865,0.10935 -0.703302,0.24301 -0.319614,0.16277 -1.389856,0.26974 -3.242156,0.32407 l -2.765028,0.0812 z m 50.750922,-0.98489 c 0.54826,-0.76995 0.72049,-0.86426 1.97636,-1.08205 1.82853,-0.31713 5.08088,-0.73085 5.74525,-0.73085 0.49004,0 0.62465,0.0776 0.68907,0.39756 0.23418,1.16266 0.2517,1.54273 0.0761,1.65121 -0.10586,0.0653 -2.14173,0.15589 -4.52439,0.20097 l -4.33212,0.0822 z m 16.90698,-0.82741 c -1.62146,-0.83391 -1.74601,-1.09344 -1.16983,-2.43764 l 0.34892,-0.81399 1.11723,-0.11916 c 0.91604,-0.0977 1.29223,-0.0509 2.08905,0.25947 1.65638,0.64536 1.94364,0.79212 1.94364,0.99296 0,0.1632 -1.3228,1.80042 -2.00652,2.48329 -0.42539,0.42483 -0.94584,0.34307 -2.32249,-0.36493 z m -71.748999,-0.50161 -0.991017,-0.96761 0.777828,-0.37652 c 0.427805,-0.20703 0.83733,-0.37655 0.910056,-0.37655 0.07273,0 0.566809,-0.19867 1.09796,-0.44174 1.044011,-0.47753 1.4232,-0.52954 2.05128,-0.28134 0.223231,0.0883 1.36002,0.33696 2.526204,0.55275 1.166178,0.21579 2.187315,0.45313 2.269206,0.52741 0.276269,0.25062 -0.230022,0.85026 -0.810022,0.95938 -0.316651,0.0595 -0.973284,0.22074 -1.459184,0.35816 -0.485912,0.13732 -1.599083,0.37031 -2.473717,0.51752 -0.874634,0.14713 -1.886643,0.31905 -2.24891,0.38189 -0.619463,0.10748 -0.717652,0.0566 -1.649684,-0.85335 z m 47.895349,-0.10351 c 1.16617,-0.57474 2.51787,-1.21629 3.0038,-1.42565 0.4859,-0.20938 1.03312,-0.46463 1.21601,-0.56723 0.18282,-0.10268 0.63454,-0.29313 1.00363,-0.42335 0.36912,-0.13023 1.41214,-0.56963 2.31788,-0.97644 2.28367,-1.025767 2.21573,-0.997218 3.55025,-1.491696 1.45171,-0.537907 1.54204,-0.542165 1.54204,-0.07263 0,0.735248 -0.59441,1.596336 -1.65653,2.399806 -0.59523,0.45026 -1.10872,0.8857 -1.14114,0.96763 -0.0323,0.082 -0.16695,0.14901 -0.29918,0.14901 -0.1321,0 -0.34639,0.15151 -0.47606,0.33658 -0.34866,0.49777 -1.65094,1.02474 -3.05312,1.23544 -2.13497,0.32083 -3.09214,0.38967 -3.09214,0.22243 0,-0.24171 -1.01243,-0.61373 -1.33419,-0.49024 -0.18011,0.0691 -0.24253,0.22695 -0.17448,0.44134 0.12836,0.40416 -0.12706,0.4805 -2.11354,0.63209 l -1.41356,0.10789 z m -34.796219,0.024 c -2.033968,-0.21846 -3.765481,-0.46457 -3.84781,-0.54688 -0.08222,-0.0824 -0.06136,-0.56101 0.04633,-1.06377 0.215372,-1.00425 0.340087,-1.06415 1.559821,-0.74904 0.351397,0.0908 1.354525,0.29647 2.229159,0.45706 0.874634,0.16069 1.789024,0.35569 2.031985,0.43354 0.24294,0.0778 0.762607,0.22804 1.154784,0.33378 0.646303,0.17426 1.849004,1.10831 1.849004,1.43598 0,0.19554 -0.911302,0.14107 -5.023314,-0.30067 z m 50.791019,0.13065 c -0.16152,-0.10123 -0.26104,-0.44127 -0.26104,-0.89148 0,-0.40027 -0.0283,-0.64282 -0.0628,-0.53901 -0.0346,0.10371 -0.28603,0.18866 -0.55875,0.18866 -0.27271,0 -1.12084,0.11352 -1.88474,0.25233 -0.7639,0.13878 -1.82159,0.30012 -2.35043,0.35851 -0.52885,0.0584 -1.1364,0.15005 -1.3501,0.20369 -0.55928,0.14045 -0.67006,-0.18929 -0.1561,-0.46441 0.23962,-0.12834 0.43569,-0.29244 0.43569,-0.36488 0,-0.0724 0.39566,-0.37513 0.87922,-0.67266 0.48358,-0.29756 1.03444,-0.6962 1.22414,-0.88588 0.70742,-0.70745 3.36739,-0.72383 3.93389,-0.0242 0.24331,0.30049 0.3794,0.34328 0.64304,0.20222 0.50952,-0.27268 2.96771,-0.90179 3.52053,-0.90099 0.26904,3.5e-4 0.88672,0.14546 1.37263,0.32228 0.85504,0.31125 0.88222,0.34243 0.84479,0.96926 -0.0213,0.35622 -0.1607,0.88348 -0.30967,1.17169 -0.2987,0.57764 -0.25836,0.5666 -3.27387,0.89592 -1.0204,0.11144 -1.97456,0.23411 -2.12032,0.27264 -0.14588,0.0384 -0.38253,-0.004 -0.52608,-0.0937 z m -40.996972,-0.57158 c -0.826051,-0.19555 -2.25727,-0.54909 -3.180488,-0.78563 -1.441467,-0.3693 -2.023033,-0.50459 -2.478507,-0.5766 -0.05113,-0.008 -0.333909,-0.23338 -0.628187,-0.50063 -0.294258,-0.26725 -0.843227,-0.72444 -1.219897,-1.01598 -0.376671,-0.29155 -1.117303,-0.946531 -1.645841,-1.455534 -0.757348,-0.729321 -0.939349,-1.008198 -0.858856,-1.316 0.05614,-0.214808 0.0167,-0.494103 -0.0889,-0.620633 -0.10497,-0.126466 -0.13732,-0.230064 -0.07179,-0.230064 0.104143,0 1.078444,0.476698 1.867764,0.913868 0.145668,0.08076 0.662602,0.345743 1.148503,0.588912 2.553343,1.27783 5.22103,2.732651 5.20924,2.840861 -0.0084,0.0676 0.447543,0.27819 1.01091,0.46795 0.563368,0.18971 1.112148,0.41737 1.219542,0.50581 0.107478,0.0885 0.584447,0.36563 1.060163,0.61594 0.475695,0.25033 0.98134,0.56821 1.123647,0.70643 0.225097,0.21863 0.179268,0.24905 -0.35338,0.23407 -0.336665,-0.0105 -1.287973,-0.17718 -2.114024,-0.37277 z m -25.278954,-2.03493 c -0.999702,-1.06744 -1.755195,-2.07514 -1.755195,-2.341141 0,-0.08598 0.457195,-0.246175 1.015987,-0.356011 0.558797,-0.109765 1.368083,-0.314229 1.798414,-0.454241 1.019425,-0.331697 1.227968,-0.322432 2.175567,0.09683 0.931752,0.412148 1.052376,0.54901 1.369213,1.553423 0.265301,0.84106 0.213324,0.93433 -0.704981,1.26523 -1.039782,0.37469 -1.298767,0.47929 -2.03198,0.82069 -0.388724,0.18093 -0.752765,0.35313 -0.808978,0.38249 -0.05623,0.0294 -0.532334,-0.40587 -1.058047,-0.96719 z m 10.436672,0.30707 c -0.145878,-0.0956 -0.538242,-0.17488 -0.872173,-0.17655 -0.553956,-0.002 -1.93124,-0.27848 -3.5585,-0.71313 -0.57606,-0.1538 -0.650055,-0.24801 -0.839294,-1.067839 -0.301086,-1.304375 -0.287002,-1.34194 0.619059,-1.650661 1.062835,-0.362146 1.321567,-0.349353 2.707278,0.133773 1.729614,0.603082 2.276767,0.941124 2.407179,1.487191 0.06344,0.265476 0.189285,0.576896 0.279649,0.692026 0.09036,0.1152 0.138991,0.47227 0.108098,0.79366 -0.05926,0.61473 -0.385414,0.80687 -0.851365,0.50139 z m 6.27264,-0.1849 c -0.58309,-0.0737 -1.69626,-0.30012 -2.473727,-0.50318 -0.777446,-0.20306 -1.546924,-0.37043 -1.709934,-0.37191 -0.388148,-0.004 -1.028817,-0.827659 -1.028817,-1.323389 0,-0.613162 0.637517,-0.797438 2.116281,-0.611764 1.365001,0.171338 1.353418,0.164451 3.529883,2.124603 0.530082,0.47739 0.887886,0.85713 0.795122,0.84383 -0.09266,-0.0125 -0.645718,-0.0845 -1.228808,-0.15819 z m 61.931154,-0.10455 c -0.14588,-0.0453 -0.70236,-0.21542 -1.23684,-0.37805 -0.96595,-0.29395 -2.6504,-1.24223 -2.6504,-1.492056 0,-0.072 -0.37331,-0.503995 -0.82957,-0.960241 l -0.82953,-0.829557 0.61742,-0.213743 c 0.33956,-0.117495 0.97128,-0.266794 1.40381,-0.331615 0.43249,-0.0649 1.29145,-0.247531 1.90876,-0.406012 l 1.12242,-0.288165 -0.0948,-0.584091 c -0.0522,-0.321241 -0.0187,-0.631171 0.0745,-0.68875 0.32627,-0.201599 1.22675,0.131268 1.73797,0.642462 0.28376,0.28374 0.58923,0.515911 0.67882,0.515911 0.33025,0 0.7342,0.648098 0.84816,1.360849 0.0999,0.624578 0.0332,0.879977 -0.44959,1.723953 -1.0378,1.813885 -1.47964,2.184275 -2.30123,1.929105 z m -32.1673,-0.95899 c -0.61567,-0.61565 -0.4312,-0.909237 1.95926,-3.118487 1.83862,-1.699244 2.29044,-2.300949 2.29044,-3.050346 0,-0.399085 -0.10936,-0.901724 -0.24297,-1.11697 -0.39138,-0.630442 -0.67052,-2.076104 -0.54467,-2.820992 0.086,-0.508587 0.25557,-0.773919 0.64699,-1.011976 0.55912,-0.340003 2.03876,-0.638393 2.22787,-0.449275 0.1319,0.131894 -0.34073,0.461003 -0.56224,0.391299 -0.0845,-0.0265 -0.39711,0.17906 -0.69472,0.457164 l -0.54113,0.505499 0.49267,1.35682 c 0.27095,0.746246 0.56843,1.808933 0.66106,2.361512 0.15652,0.933402 0.13126,1.079571 -0.35495,2.059554 -0.7037,1.418302 -1.768,2.751226 -3.08763,3.866948 -1.18543,1.0022 -1.68949,1.12974 -2.24998,0.56925 z m 25.64979,-0.15736 -0.90869,-0.46048 0.66515,-0.723288 c 0.65032,-0.7072 0.67497,-0.716903 1.10686,-0.435522 0.60615,0.39491 1.59024,1.36143 1.59024,1.56186 0,0.0904 -0.3476,0.24392 -0.77243,0.34113 -0.68366,0.15652 -0.87689,0.12375 -1.68113,-0.2837 z m -5.92738,0.12731 c -0.39195,-0.21934 -0.34424,-0.54283 0.14818,-1.005548 0.3855,-0.362146 2.30834,-0.888137 5.02646,-1.375019 l 0.59273,-0.106224 -0.64102,0.892269 c -0.72842,1.013912 -0.7983,1.053132 -2.48807,1.396662 -1.6474,0.33491 -2.30525,0.38425 -2.63838,0.19784 z m -36.64527,-1.499779 c -1.709203,-1.767737 -2.489256,-2.975051 -3.021403,-4.676277 -0.25949,-0.82962 0.10643,-2.362493 0.941729,-3.94462 0.474839,-0.899385 0.365734,-1.231375 -0.645614,-1.964619 -0.699937,-0.50748 -0.849655,-0.688625 -0.609928,-0.73794 0.174676,-0.03589 0.413275,0.01047 0.530081,0.102889 0.116875,0.09245 0.500927,0.261118 0.85362,0.374627 1.442842,0.464363 1.627765,1.52294 0.706865,4.046315 -0.292777,0.802196 -0.479724,1.601179 -0.424295,1.813192 0.100381,0.383556 0.927329,1.339519 3.095965,3.578633 1.49302,1.541535 1.58653,2.229326 0.33992,2.499859 -0.55537,0.12062 -0.6526,0.0605 -1.76694,-1.092055 z m 33.54841,0.87357 c 0.004,-0.168415 0.18281,-0.661621 0.39756,-1.095765 0.37924,-0.767053 0.45026,-0.813049 2.5106,-1.625723 1.16619,-0.45996 2.32307,-0.840241 2.57089,-0.84502 0.2478,-0.0041 0.52611,-0.07847 0.61842,-0.163616 0.0923,-0.08514 1.00273,-0.416301 2.02315,-0.73579 1.36625,-0.427759 2.25117,-0.593108 3.35718,-0.627291 2.0895,-0.06469 2.68313,0.07993 2.84707,0.692862 0.15526,0.58021 -0.0831,0.70818 -2.05194,1.102381 -2.54299,0.509129 -3.61363,0.765884 -3.95477,0.94845 -0.19303,0.103303 -0.86331,0.187823 -1.48949,0.187823 -0.74982,0 -1.20724,0.08285 -1.33991,0.24267 -0.11077,0.133563 -0.5943,0.294821 -1.07452,0.358514 -0.71357,0.09475 -1.02377,0.260178 -1.69762,0.905834 -0.45348,0.4345 -0.91395,0.7979 -1.02327,0.80758 -0.10935,0.0105 -0.53667,0.0482 -0.94969,0.0856 -0.62287,0.0563 -0.74971,0.0167 -0.74366,-0.238434 z M 113.6932,98.655115 c -0.267,-0.213451 -0.34833,-0.419077 -0.67358,-1.702938 -0.20827,-0.821857 0.11724,-2.576196 0.65978,-3.55599 0.32467,-0.586366 0.67054,-0.911637 1.30683,-1.228955 l 0.86532,-0.431536 0.37393,0.373958 c 0.55988,0.559882 0.95973,1.91927 1.01077,3.436513 0.0544,1.618 -0.20055,2.688619 -0.72832,3.058319 -0.47641,0.33368 -2.41702,0.368595 -2.81473,0.05071 z m -45.82024,-0.92998 c -1.493384,-1.83571 -1.837993,-3.122346 -1.139136,-4.253131 0.406215,-0.657258 1.800686,-1.404986 2.9685,-1.591746 0.829176,-0.13252 1.03742,0.09892 0.755683,0.839907 -0.227602,0.598638 -0.07404,0.78185 0.860697,1.026856 1.817173,0.476343 3.724205,1.120809 3.831832,1.294964 0.06336,0.102462 -0.06924,0.311391 -0.294676,0.464133 -0.22544,0.152765 -0.721616,0.581818 -1.102617,0.95348 -0.457384,0.446165 -0.913569,0.709411 -1.342765,0.774857 -0.357522,0.05447 -0.769307,0.196381 -0.91508,0.315211 -0.381667,0.311225 -1.378109,0.630296 -2.297235,0.735644 -0.748549,0.08577 -0.826507,0.0528 -1.325203,-0.560175 z m 36.42135,0.454076 c -1.0406,-0.144417 -1.28688,-0.435877 -1.44632,-1.711955 -0.2898,-2.319376 0.69862,-5.012398 1.83967,-5.012398 1.5504,0 2.95437,4.18232 2.04632,6.095873 -0.37329,0.786649 -0.69745,0.870168 -2.43967,0.62848 z m 6.97836,-0.0361 c -0.23134,-0.08598 -1.12584,-0.167164 -1.98781,-0.180312 -1.01304,-0.01461 -1.56351,-0.09267 -1.5567,-0.218063 0.006,-0.106638 0.0762,-0.591564 0.15631,-1.077485 0.30068,-1.82302 -0.34579,-4.137598 -1.55193,-5.5564 l -0.51771,-0.608988 0.34201,-0.462611 c 0.32239,-0.436024 0.32627,-0.509045 0.0676,-1.271153 -0.52686,-1.551823 -2.4347,-5.035021 -3.50978,-6.407974 -1.11906,-1.42909 -1.88373,-1.895687 -3.106654,-1.895687 -1.146186,0 -1.609194,0.181354 -2.419758,0.947593 -0.482625,0.456246 -0.572739,0.48465 -0.772835,0.243545 -0.373915,-0.450548 0.827387,-1.409286 2.196896,-1.753296 0.994905,-0.24991 1.205914,-0.25158 1.999551,-0.0167 1.80337,0.53555 4.01719,3.279138 5.94662,7.369655 0.53106,1.12588 1.02905,2.080172 1.1066,2.120639 0.0776,0.04048 1.17344,0.02755 2.43529,-0.02859 l 2.29424,-0.102049 0.42278,-0.795121 c 1.0754,-2.022574 2.59328,-4.417331 2.79989,-4.417331 0.12564,0 0.2284,-0.09516 0.2284,-0.211385 0,-0.72544 2.20054,-2.792423 2.97286,-2.792423 0.19992,0 0.40832,-0.07263 0.46317,-0.16132 0.19136,-0.309701 1.52966,-0.409562 2.36278,-0.176346 0.91146,0.25519 2.38452,1.595649 2.29133,2.085056 -0.0906,0.476155 -0.78871,0.447438 -1.11186,-0.04571 -0.3958,-0.604104 -1.04559,-1.000059 -2.09568,-1.277057 -0.80048,-0.211177 -0.95753,-0.20118 -1.60394,0.102049 -0.39415,0.184903 -0.83586,0.440177 -0.98164,0.567334 -0.43487,0.379342 -2.29702,2.572564 -2.29702,2.705397 0,0.06762 -0.4233,0.850489 -0.94068,1.739795 -1.65854,2.850877 -1.8174,3.372819 -1.10847,3.642347 0.71227,0.270822 0.70188,0.52359 -0.0587,1.425522 -0.40132,0.475946 -0.946,1.282317 -1.21041,1.791946 -0.43614,0.84068 -0.48072,1.103238 -0.48072,2.831491 0,1.107411 -0.0739,1.93296 -0.17676,1.971965 -0.0972,0.03694 -0.36596,-0.0041 -0.59727,-0.08911 z M 80.065042,97.879673 c -0.388734,-0.150677 -0.932089,-0.316234 -1.207478,-0.367864 -0.767171,-0.143789 -2.396432,-1.993065 -1.755996,-1.993065 0.07077,0 1.262944,0.362085 2.649286,0.80464 1.853176,0.591582 2.572543,0.90166 2.716688,1.170979 0.150885,0.282111 0.141077,0.401191 -0.04299,0.517851 -0.373664,0.236783 -1.581749,0.168833 -2.359445,-0.13252 z m 4.594035,0.158607 c -1.061836,-0.108731 -1.303544,-0.234592 -1.832353,-0.953646 -0.413568,-0.562365 -0.755512,-0.802259 -1.473417,-1.033679 -2.761388,-0.890162 -6.217502,-1.962763 -7.384196,-2.291683 -2.052298,-0.578603 -2.650407,-0.8805 -2.650407,-1.33781 0,-0.540328 0.416994,-0.862884 0.829882,-0.641899 0.177305,0.09495 0.545683,0.129807 0.818598,0.07763 0.504621,-0.09641 2.719011,0.40234 3.025069,0.681405 0.09233,0.08411 0.291103,0.154851 0.441736,0.156938 0.150634,0.0021 0.63168,0.173841 1.068996,0.381679 0.437318,0.207859 0.86044,0.363189 0.940268,0.345304 0.07983,-0.01878 0.437637,0.117702 0.795122,0.301458 0.357482,0.18365 1.007771,0.494061 1.445089,0.68971 0.437316,0.195755 1.311951,0.595195 1.943645,0.887866 0.631673,0.292672 1.39969,0.626957 1.706678,0.742824 0.439906,0.16612 0.61575,0.385415 0.829933,1.035223 0.30561,0.92733 0.248533,1.035787 -0.504643,0.958633 z m -9.930146,-0.30319 c -0.404382,-0.101429 -0.785237,-0.235406 -0.846345,-0.297848 -0.0611,-0.0624 0.209958,-0.340733 0.602366,-0.61842 0.392409,-0.277688 0.715166,-0.604293 0.717242,-0.725752 0.0021,-0.121464 0.162803,-0.220882 0.357161,-0.220882 0.194356,0 0.353387,-0.09767 0.353387,-0.216853 0,-0.405075 0.874327,0.655651 0.97979,1.188675 0.09825,0.496545 0.05637,0.547341 -0.661737,0.80274 -0.601983,0.214098 -0.924515,0.233069 -1.501864,0.08828 z"
       style="fill:#9f7f02;fill-opacity:1;stroke-width:0.17669378" />
  </g>
</svg>
